<?xml version="1.0" encoding="UTF-8" standalone="no"?>
<!DOCTYPE svg PUBLIC "-//W3C//DTD SVG 1.1//EN" "http://www.w3.org/Graphics/SVG/1.1/DTD/svg11.dtd">
<svg width="100%" height="100%" viewBox="0 0 400 477" version="1.1" xmlns="http://www.w3.org/2000/svg" xmlns:xlink="http://www.w3.org/1999/xlink" xml:space="preserve" xmlns:serif="http://www.serif.com/" style="fill-rule:evenodd;clip-rule:evenodd;stroke-linejoin:round;stroke-miterlimit:2;">
    <g
        transform="matrix(1,0,0,1,0,0)"
        fill="var(--theme-color)"
    ><rect width="104" height="115" rx="8"></rect></g>
    <g
        transform="matrix(1.9397249843480202,0,0,1.9397249843480202,20.09097998900165,-16.56932675832502)"
        fill="white"
    ><path d="M0.66 16.560000000000002 c0.06 0 30.72 -0.42 30.9 -0.24 c0.78 0.72 1.2 8.4 1.2 17.1 c-2.52 -2.7 -7.02 -6.24 -13.68 -7.2 c-2.04 -0.48 -3.66 -0.3 -3.66 -0.3 c-1.14 0.12 -1.98 1.02 -1.86 2.16 c0.06 0.96 0.84 1.68 1.74 1.86 c0.18 0 0.42 0.06 0.66 0.06 c0.66 0 1.2 0.06 1.8 0.18 c2.34 0.6 5.76 3.06 4.2 12 c-4.32 -1.26 -7.62 -0.42 -8.34 0.66 c-1.44 2.04 -0.24 9.48 1.02 17.22 c-7.08 0 -13.74 -0.3 -14.16 -0.96 c-1.2 -2.16 0 -42.36 0.18 -42.54 z"></path></g>
</svg>
