<?xml version="1.0" encoding="UTF-8" standalone="no"?>
<!DOCTYPE svg PUBLIC "-//W3C//DTD SVG 1.1//EN" "http://www.w3.org/Graphics/SVG/1.1/DTD/svg11.dtd">
<svg width="100%" height="100%" viewBox="0 0 384 425" version="1.1" xmlns="http://www.w3.org/2000/svg" xmlns:xlink="http://www.w3.org/1999/xlink" xml:space="preserve" xmlns:serif="http://www.serif.com/" style="fill-rule:evenodd;clip-rule:evenodd;stroke-linejoin:round;stroke-miterlimit:2;">
    <g transform="matrix(1,0,0,1,-197.631,-77.4502)">
        <g transform="matrix(3.89882,0,0,3.89882,186.718,65.3833)">
            <g transform="matrix(0.946174,0,0,0.946174,2.79897,3.09502)">
                <path d="M104,2.169C104,0.972 103.028,0 101.831,0L2.169,0C0.972,0 0,0.972 0,2.169L0,112.831C0,114.028 0.972,115 2.169,115L101.831,115C103.028,115 104,114.028 104,112.831L104,2.169Z" style="fill:rgb(237,63,0);"/>
            </g>
        </g>
        <g transform="matrix(7.56263,0,0,7.56263,265.049,0.782552)">
            <g transform="matrix(0.946174,0,0,0.946174,0.885459,2.05539)">
                <path d="M0.66,16.56C0.72,16.56 31.38,16.14 31.56,16.32C32.34,17.04 32.76,24.72 32.76,33.42C30.24,30.72 25.74,27.18 19.08,26.22C17.04,25.74 15.42,25.92 15.42,25.92C14.28,26.04 13.44,26.94 13.56,28.08C13.62,29.04 14.4,29.76 15.3,29.94C15.48,29.94 15.72,30 15.96,30C16.62,30 17.16,30.06 17.76,30.18C20.1,30.78 23.52,33.24 21.96,42.18C17.64,40.92 14.34,41.76 13.62,42.84C12.18,44.88 13.38,52.32 14.64,60.06C7.56,60.06 0.9,59.76 0.48,59.1C-0.72,56.94 0.48,16.74 0.66,16.56Z" style="fill:white;"/>
            </g>
        </g>
    </g>
</svg>
